HIERARCHY
ROOT Hips
{
	OFFSET -8.665500 -1.496397 44.816700
	CHANNELS 6 Xposition Yposition Zposition Zrotation Xrotation Yrotation
	JOINT Chest
	{
		OFFSET -0.698600 0.806100 5.350899
		CHANNELS 6 Xposition Yposition Zposition Zrotation Xrotation Yrotation
		JOINT Chest2
		{
			OFFSET 0.000000 0.000000 4.409100
			CHANNELS 6 Xposition Yposition Zposition Zrotation Xrotation Yrotation
			JOINT Neck
			{
				OFFSET 0.000000 0.000001 10.248299
				CHANNELS 6 Xposition Yposition Zposition Zrotation Xrotation Yrotation
				JOINT Head
				{
					OFFSET 0.000000 0.000000 2.173897
					CHANNELS 6 Xposition Yposition Zposition Zrotation Xrotation Yrotation
					End Site
					{
						OFFSET 0.000000 0.000001 9.966400
					}
				}
			}
			JOINT LeftCollar
			{
				OFFSET 2.100600 -0.520900 6.016098
				CHANNELS 6 Xposition Yposition Zposition Zrotation Xrotation Yrotation
				JOINT LeftShoulder
				{
					OFFSET 5.536700 0.000000 0.000000
					CHANNELS 6 Xposition Yposition Zposition Zrotation Xrotation Yrotation
					JOINT LeftElbow
					{
						OFFSET 0.000000 -0.000001 -12.362099
						CHANNELS 6 Xposition Yposition Zposition Zrotation Xrotation Yrotation
						JOINT LeftWrist
						{
							OFFSET 0.000000 -0.000001 -10.273201
							CHANNELS 6 Xposition Yposition Zposition Zrotation Xrotation Yrotation
							End Site
							{
								OFFSET 0.000000 -0.000000 -2.173901
							}
						}
					}
				}
			}
			JOINT RightCollar
			{
				OFFSET -2.899500 -1.655900 6.981701
				CHANNELS 6 Xposition Yposition Zposition Zrotation Xrotation Yrotation
				JOINT RightShoulder
				{
					OFFSET -4.387501 0.000000 0.000000
					CHANNELS 6 Xposition Yposition Zposition Zrotation Xrotation Yrotation
					JOINT RightElbow
					{
						OFFSET 0.000000 -0.000001 -10.858101
						CHANNELS 6 Xposition Yposition Zposition Zrotation Xrotation Yrotation
						JOINT RightWrist
						{
							OFFSET 0.000000 -0.000001 -12.079601
							CHANNELS 6 Xposition Yposition Zposition Zrotation Xrotation Yrotation
							End Site
							{
								OFFSET 0.000000 0.000000 -2.173901
							}
						}
					}
				}
			}
		}
	}
	JOINT LeftHip
	{
		OFFSET 2.190800 0.073900 -2.522499
		CHANNELS 6 Xposition Yposition Zposition Zrotation Xrotation Yrotation
		JOINT LeftKnee
		{
			OFFSET 0.000000 -0.000002 -20.305000
			CHANNELS 6 Xposition Yposition Zposition Zrotation Xrotation Yrotation
			JOINT LeftAnkle
			{
				OFFSET 0.000000 -0.000001 -16.771700
				CHANNELS 6 Xposition Yposition Zposition Zrotation Xrotation Yrotation
				End Site
				{
					OFFSET 0.000000 -8.738000 0.000001
				}
			}
		}
	}
	JOINT RightHip
	{
		OFFSET -2.029500 0.054300 -2.705200
		CHANNELS 6 Xposition Yposition Zposition Zrotation Xrotation Yrotation
		JOINT RightKnee
		{
			OFFSET 0.000000 -0.000002 -20.030399
			CHANNELS 6 Xposition Yposition Zposition Zrotation Xrotation Yrotation
			JOINT RightAnkle
			{
				OFFSET 0.000000 -0.000001 -17.032700
				CHANNELS 6 Xposition Yposition Zposition Zrotation Xrotation Yrotation
				End Site
				{
					OFFSET 0.000000 -8.823600 0.000001
				}
			}
		}
	}
}
MOTION
Frames: 4
Frame Time: 0.041667
32.832806 1.605308 46.104794 1807.777095 3.120283 -2.018564 -0.698607 0.806100 5.350898 -7.913099 -2.595100 4.054269 0.000002 0.000000 4.409107 4.634976 -0.607232 0.144234 -0.000002 0.000000 10.248305 38.724724 13.165548 -8.213069 -0.000005 0.000002 2.173901 1.415640 1.977660 3.775642 2.100600 -0.520898 6.016111 15.628774 -13.699506 -23.599912 5.536695 0.000003 0.000001 73.625662 215.414372 -354.257078 -0.000002 0.000008 -12.362090 -1345.177453 -1.872989 14.886346 -0.000006 -0.000002 -10.273206 2595.356700 189.552544 -191.604401 -2.899503 -1.655899 6.981703 -9.132865 -12.203350 41.902418 -4.387502 -0.000001 -0.000008 -773.788306 -483.665475 380.186880 0.000001 0.000003 -10.858105 141.694692 195.489194 161.866304 0.000001 0.000001 -12.079601 -97.952843 -177.080864 169.172612 2.190789 0.073900 -2.522501 -530.235672 -170.395994 -172.055880 -0.000003 -0.000007 -20.305008 -776.479237 39.040292 19.048132 -0.000005 0.000000 -16.771702 1462.208318 2.801620 15.490049 -2.029509 0.054297 -2.705200 -35.619812 -28.131439 -14.350048 0.000005 -0.000001 -20.030405 -344.007450 46.877624 -4.467567 -0.000004 -0.000001 -17.032701 375.172019 31.273117 -6.018881
32.848408 2.054309 45.833996 1802.068477 3.740181 -2.108633 -0.698600 0.806097 5.350903 -2.362461 -1.925205 5.500610 0.000005 0.000000 4.409099 -1.626309 -0.901624 -0.329582 0.000003 0.000001 10.248305 37.595844 13.204906 -8.322596 -0.000002 0.000001 2.173893 1.098568 1.972776 3.665924 2.100599 -0.520898 6.016104 17.286734 -10.771476 -23.066818 5.536696 0.000004 -0.000004 70.034499 214.651139 -358.213970 -0.000001 0.000001 -12.362090 -1352.332322 -3.870226 14.128618 0.000001 -0.000001 -10.273191 2606.896551 189.971658 -191.747848 -2.899500 -1.655899 6.981701 -8.148907 -12.107977 41.951288 -4.387504 -0.000002 0.000005 -776.641467 -481.428015 378.880046 0.000002 -0.000000 -10.858109 140.791140 195.154569 161.625239 0.000000 0.000001 -12.079586 -97.515560 -177.108854 168.598739 2.190800 0.073896 -2.522504 -530.307034 -169.133037 -171.542783 -0.000002 -0.000010 -20.305008 -779.402448 38.538106 22.472786 0.000003 0.000001 -16.771702 1468.248937 0.999497 18.185860 -2.029502 0.054293 -2.705206 -36.922910 -29.426548 -16.204622 0.000002 0.000002 -20.030397 -342.809571 48.609456 -5.236748 -0.000001 0.000000 -17.032696 378.653120 32.066417 -7.730570
32.867908 2.510808 45.632294 1796.628040 4.543200 -2.020952 -0.698605 0.806099 5.350906 2.888079 -1.284705 6.737361 0.000003 0.000001 4.409102 -7.913543 -1.100992 -0.816301 0.000001 0.000000 10.248301 36.802613 13.199795 -8.485688 0.000005 0.000002 2.173887 0.989781 2.048656 3.744317 2.100601 -0.520900 6.016100 15.108865 -12.041794 -23.116369 5.536697 0.000002 0.000003 73.005966 215.334267 -355.115550 -0.000001 0.000005 -12.362106 -1358.639701 -5.534717 13.229648 -0.000009 -0.000001 -10.273203 2618.307666 189.617731 -192.431277 -2.899499 -1.655899 6.981696 -8.153334 -11.990050 40.798909 -4.387497 -0.000000 -0.000003 -778.454527 -480.264041 377.984663 -0.000001 -0.000003 -10.858110 139.979399 194.693736 161.403299 0.000001 -0.000000 -12.079605 -97.396148 -176.494028 168.253664 2.190795 0.073896 -2.522503 -524.779662 -168.100367 -170.179067 -0.000004 -0.000008 -20.305002 -787.091274 38.019869 25.906365 0.000003 0.000001 -16.771702 1473.656371 -0.282711 20.948947 -2.029504 0.054296 -2.705199 -38.800846 -30.751779 -18.397910 0.000003 -0.000001 -20.030399 -339.473106 50.122401 -7.825372 0.000002 -0.000001 -17.032701 381.101470 33.884435 -9.558244
32.901306 2.967608 45.497292 1790.897785 5.416790 -1.558397 -0.698601 0.806104 5.350885 8.534848 -0.460748 7.676972 -0.000002 0.000001 4.409102 -14.544662 -1.282135 -1.273418 -0.000002 0.000001 10.248301 36.304446 12.801766 -8.759734 -0.000000 -0.000003 2.173889 1.013084 2.259357 3.459934 2.100597 -0.520898 6.016100 15.175820 -12.293357 -23.779140 5.536695 0.000003 0.000004 70.692444 216.667944 -355.921376 -0.000002 -0.000003 -12.362108 -1366.961603 -6.909910 12.176254 -0.000010 -0.000003 -10.273196 2630.501903 189.568731 -193.033112 -2.899501 -1.655897 6.981696 -8.385533 -12.109555 39.956760 -4.387502 -0.000000 0.000006 -779.565608 -478.437594 377.310879 0.000002 -0.000003 -10.858099 139.080014 194.563539 161.109396 0.000001 -0.000001 -12.079601 -97.251150 -176.483223 168.246656 2.190800 0.073903 -2.522507 -525.370228 -166.164555 -170.487068 -0.000001 -0.000006 -20.305002 -787.560044 37.361784 28.718654 -0.000001 0.000002 -16.771702 1478.320571 -1.351766 23.863846 -2.029499 0.054301 -2.705210 -40.978717 -31.926302 -21.097971 0.000005 -0.000001 -20.030405 -343.212826 51.755116 -5.397037 0.000000 0.000001 -17.032701 388.849773 37.287830 -12.754344
